<?xml version="1.0" encoding="UTF-8"?>
<svg xmlns="http://www.w3.org/2000/svg" xmlns:xlink="http://www.w3.org/1999/xlink" width="45pt" height="45pt" viewBox="0 0 45 45" version="1.1">
<g id="surface1">
<path style=" stroke:none;fill-rule:nonzero;fill:rgb(0%,0%,0%);fill-opacity:1;" d="M 42.785156 24.140625 L 1.859375 24.140625 C 0.832031 24.140625 0 23.308594 0 22.28125 C 0 21.257812 0.832031 20.425781 1.859375 20.425781 L 42.785156 20.425781 C 43.808594 20.425781 44.644531 21.257812 44.644531 22.28125 C 44.644531 23.308594 43.808594 24.140625 42.785156 24.140625 Z M 42.785156 24.140625 "/>
<path style=" stroke:none;fill-rule:nonzero;fill:rgb(0%,0%,0%);fill-opacity:1;" d="M 42.785156 9.878906 L 1.859375 9.878906 C 0.832031 9.878906 0 9.046875 0 8.023438 C 0 6.996094 0.832031 6.164062 1.859375 6.164062 L 42.785156 6.164062 C 43.808594 6.164062 44.644531 6.996094 44.644531 8.023438 C 44.644531 9.046875 43.808594 9.878906 42.785156 9.878906 Z M 42.785156 9.878906 "/>
<path style=" stroke:none;fill-rule:nonzero;fill:rgb(0%,0%,0%);fill-opacity:1;" d="M 42.785156 38.402344 L 1.859375 38.402344 C 0.832031 38.402344 0 37.570312 0 36.542969 C 0 35.515625 0.832031 34.683594 1.859375 34.683594 L 42.785156 34.683594 C 43.808594 34.683594 44.644531 35.515625 44.644531 36.542969 C 44.644531 37.570312 43.808594 38.402344 42.785156 38.402344 Z M 42.785156 38.402344 "/>
</g>
</svg>
